<mxfile host="app.diagrams.net" agent="Mozilla/5.0 (Windows NT 10.0; Win64; x64) AppleWebKit/537.36 (KHTML, like Gecko) Chrome/126.0.0.0 Safari/537.36" version="24.7.5" pages="2">
  <diagram name="Page-1" id="0JN1FYZXMtszW6WaoAGu">
    <mxGraphModel dx="1909" dy="1013" grid="1" gridSize="10" guides="1" tooltips="1" connect="1" arrows="1" fold="1" page="1" pageScale="1" pageWidth="850" pageHeight="1100" math="0" shadow="0">
      <root>
        <mxCell id="0" />
        <mxCell id="1" parent="0" />
        <mxCell id="sEcPqNNlxR5fD0_kPxmS-2" value="S0" style="ellipse;whiteSpace=wrap;html=1;aspect=fixed;" parent="1" vertex="1">
          <mxGeometry x="190" y="120" width="70" height="70" as="geometry" />
        </mxCell>
        <mxCell id="sEcPqNNlxR5fD0_kPxmS-3" value="S3" style="ellipse;whiteSpace=wrap;html=1;aspect=fixed;" parent="1" vertex="1">
          <mxGeometry x="450" y="120" width="70" height="70" as="geometry" />
        </mxCell>
        <mxCell id="sEcPqNNlxR5fD0_kPxmS-4" value="S2" style="ellipse;whiteSpace=wrap;html=1;aspect=fixed;" parent="1" vertex="1">
          <mxGeometry x="330" y="280" width="70" height="70" as="geometry" />
        </mxCell>
        <mxCell id="sEcPqNNlxR5fD0_kPxmS-8" value="S=2 bits&lt;div&gt;where&lt;/div&gt;&lt;div&gt;S[0]=LSB(Condition)&lt;/div&gt;&lt;div&gt;S[1]=Carry Value&lt;/div&gt;" style="text;html=1;align=left;verticalAlign=middle;whiteSpace=wrap;rounded=0;" parent="1" vertex="1">
          <mxGeometry x="500" y="370" width="110" height="70" as="geometry" />
        </mxCell>
        <mxCell id="sEcPqNNlxR5fD0_kPxmS-13" value="" style="curved=1;endArrow=classic;html=1;rounded=0;entryX=0;entryY=0;entryDx=0;entryDy=0;exitX=0.713;exitY=0.018;exitDx=0;exitDy=0;exitPerimeter=0;" parent="1" source="sEcPqNNlxR5fD0_kPxmS-2" target="sEcPqNNlxR5fD0_kPxmS-3" edge="1">
          <mxGeometry width="50" height="50" relative="1" as="geometry">
            <mxPoint x="320" y="90" as="sourcePoint" />
            <mxPoint x="370" y="40" as="targetPoint" />
            <Array as="points">
              <mxPoint x="290" y="80" />
              <mxPoint x="400" y="80" />
            </Array>
          </mxGeometry>
        </mxCell>
        <mxCell id="sEcPqNNlxR5fD0_kPxmS-14" value="1/0" style="text;html=1;align=center;verticalAlign=middle;whiteSpace=wrap;rounded=0;" parent="1" vertex="1">
          <mxGeometry x="316" y="50" width="60" height="30" as="geometry" />
        </mxCell>
        <mxCell id="sEcPqNNlxR5fD0_kPxmS-20" value="" style="curved=1;endArrow=classic;html=1;rounded=0;exitX=0.5;exitY=1;exitDx=0;exitDy=0;entryX=0;entryY=0.5;entryDx=0;entryDy=0;" parent="1" source="sEcPqNNlxR5fD0_kPxmS-2" target="sEcPqNNlxR5fD0_kPxmS-4" edge="1">
          <mxGeometry width="50" height="50" relative="1" as="geometry">
            <mxPoint x="350" y="210" as="sourcePoint" />
            <mxPoint x="470" y="200" as="targetPoint" />
            <Array as="points">
              <mxPoint x="230" y="250" />
              <mxPoint x="300" y="315" />
            </Array>
          </mxGeometry>
        </mxCell>
        <mxCell id="sEcPqNNlxR5fD0_kPxmS-21" value="0/1" style="text;html=1;align=center;verticalAlign=middle;whiteSpace=wrap;rounded=0;" parent="1" vertex="1">
          <mxGeometry x="195" y="240" width="60" height="30" as="geometry" />
        </mxCell>
        <mxCell id="sEcPqNNlxR5fD0_kPxmS-22" value="" style="curved=1;endArrow=classic;html=1;rounded=0;exitX=0.5;exitY=0;exitDx=0;exitDy=0;entryX=0.729;entryY=0.039;entryDx=0;entryDy=0;entryPerimeter=0;" parent="1" source="sEcPqNNlxR5fD0_kPxmS-3" target="sEcPqNNlxR5fD0_kPxmS-3" edge="1">
          <mxGeometry width="50" height="50" relative="1" as="geometry">
            <mxPoint x="510" y="80" as="sourcePoint" />
            <mxPoint x="540" y="80" as="targetPoint" />
            <Array as="points">
              <mxPoint x="490" y="90" />
              <mxPoint x="510" y="80" />
              <mxPoint x="520" y="100" />
            </Array>
          </mxGeometry>
        </mxCell>
        <mxCell id="sEcPqNNlxR5fD0_kPxmS-23" value="1/0" style="text;html=1;align=center;verticalAlign=middle;whiteSpace=wrap;rounded=0;" parent="1" vertex="1">
          <mxGeometry x="480" y="50" width="60" height="30" as="geometry" />
        </mxCell>
        <mxCell id="sEcPqNNlxR5fD0_kPxmS-24" value="" style="curved=1;endArrow=classic;html=1;rounded=0;entryX=1;entryY=0.5;entryDx=0;entryDy=0;exitX=0.5;exitY=1;exitDx=0;exitDy=0;" parent="1" source="sEcPqNNlxR5fD0_kPxmS-3" target="sEcPqNNlxR5fD0_kPxmS-4" edge="1">
          <mxGeometry width="50" height="50" relative="1" as="geometry">
            <mxPoint x="455" y="270" as="sourcePoint" />
            <mxPoint x="690" y="280" as="targetPoint" />
            <Array as="points">
              <mxPoint x="500" y="250" />
              <mxPoint x="440" y="310" />
            </Array>
          </mxGeometry>
        </mxCell>
        <mxCell id="sEcPqNNlxR5fD0_kPxmS-25" value="1/0" style="text;html=1;align=center;verticalAlign=middle;whiteSpace=wrap;rounded=0;" parent="1" vertex="1">
          <mxGeometry x="480" y="250" width="60" height="30" as="geometry" />
        </mxCell>
        <mxCell id="sEcPqNNlxR5fD0_kPxmS-27" value="" style="curved=1;endArrow=classic;html=1;rounded=0;exitX=0.5;exitY=1;exitDx=0;exitDy=0;entryX=0;entryY=1;entryDx=0;entryDy=0;" parent="1" source="sEcPqNNlxR5fD0_kPxmS-4" target="sEcPqNNlxR5fD0_kPxmS-4" edge="1">
          <mxGeometry width="50" height="50" relative="1" as="geometry">
            <mxPoint x="495" y="359" as="sourcePoint" />
            <mxPoint x="511" y="362" as="targetPoint" />
            <Array as="points">
              <mxPoint x="370" y="380" />
              <mxPoint x="330" y="380" />
            </Array>
          </mxGeometry>
        </mxCell>
        <mxCell id="sEcPqNNlxR5fD0_kPxmS-28" value="1/1" style="text;html=1;align=center;verticalAlign=middle;whiteSpace=wrap;rounded=0;" parent="1" vertex="1">
          <mxGeometry x="316" y="380" width="60" height="30" as="geometry" />
        </mxCell>
        <mxCell id="sEcPqNNlxR5fD0_kPxmS-29" value="" style="curved=1;endArrow=classic;html=1;rounded=0;exitX=0.5;exitY=0;exitDx=0;exitDy=0;entryX=0.801;entryY=0.07;entryDx=0;entryDy=0;entryPerimeter=0;" parent="1" source="sEcPqNNlxR5fD0_kPxmS-4" target="sEcPqNNlxR5fD0_kPxmS-4" edge="1">
          <mxGeometry width="50" height="50" relative="1" as="geometry">
            <mxPoint x="311" y="320" as="sourcePoint" />
            <mxPoint x="286" y="310" as="targetPoint" />
            <Array as="points">
              <mxPoint x="370" y="260" />
              <mxPoint x="400" y="260" />
            </Array>
          </mxGeometry>
        </mxCell>
        <mxCell id="sEcPqNNlxR5fD0_kPxmS-30" value="0/0" style="text;html=1;align=center;verticalAlign=middle;whiteSpace=wrap;rounded=0;" parent="1" vertex="1">
          <mxGeometry x="376" y="240" width="60" height="30" as="geometry" />
        </mxCell>
        <mxCell id="pLiEH8pGqrNi-InXNSvn-57" value="State Diagram" style="text;html=1;align=center;verticalAlign=middle;whiteSpace=wrap;rounded=0;" vertex="1" parent="1">
          <mxGeometry x="310" y="430" width="105" height="30" as="geometry" />
        </mxCell>
        <mxCell id="pLiEH8pGqrNi-InXNSvn-58" value="" style="rounded=0;whiteSpace=wrap;html=1;fillColor=none;" vertex="1" parent="1">
          <mxGeometry x="160" y="40" width="455" height="450" as="geometry" />
        </mxCell>
        <mxCell id="yz5L-PIxiEWywcTvDbyE-1" value="Truth Table for Serial Adder" style="shape=table;startSize=30;container=1;collapsible=0;childLayout=tableLayout;strokeColor=default;fontSize=16;" vertex="1" parent="1">
          <mxGeometry x="140" y="560" width="632" height="395" as="geometry" />
        </mxCell>
        <mxCell id="yz5L-PIxiEWywcTvDbyE-2" value="" style="shape=tableRow;horizontal=0;startSize=0;swimlaneHead=0;swimlaneBody=0;strokeColor=inherit;top=0;left=0;bottom=0;right=0;collapsible=0;dropTarget=0;fillColor=none;points=[[0,0.5],[1,0.5]];portConstraint=eastwest;fontSize=16;" vertex="1" parent="yz5L-PIxiEWywcTvDbyE-1">
          <mxGeometry y="30" width="632" height="46" as="geometry" />
        </mxCell>
        <mxCell id="yz5L-PIxiEWywcTvDbyE-3" value="Current Input" style="shape=partialRectangle;html=1;whiteSpace=wrap;connectable=0;strokeColor=inherit;overflow=hidden;fillColor=none;top=0;left=0;bottom=0;right=0;pointerEvents=1;fontSize=16;rowspan=2;colspan=1;" vertex="1" parent="yz5L-PIxiEWywcTvDbyE-2">
          <mxGeometry width="158" height="92" as="geometry">
            <mxRectangle width="158" height="46" as="alternateBounds" />
          </mxGeometry>
        </mxCell>
        <mxCell id="yz5L-PIxiEWywcTvDbyE-4" value="Current State" style="shape=partialRectangle;html=1;whiteSpace=wrap;connectable=0;strokeColor=inherit;overflow=hidden;fillColor=none;top=0;left=0;bottom=0;right=0;pointerEvents=1;fontSize=16;rowspan=1;colspan=2;" vertex="1" parent="yz5L-PIxiEWywcTvDbyE-2">
          <mxGeometry x="158" width="316" height="46" as="geometry">
            <mxRectangle width="158" height="46" as="alternateBounds" />
          </mxGeometry>
        </mxCell>
        <mxCell id="yz5L-PIxiEWywcTvDbyE-5" style="shape=partialRectangle;html=1;whiteSpace=wrap;connectable=0;strokeColor=inherit;overflow=hidden;fillColor=none;top=0;left=0;bottom=0;right=0;pointerEvents=1;fontSize=16;" vertex="1" visible="0" parent="yz5L-PIxiEWywcTvDbyE-2">
          <mxGeometry x="316" width="158" height="46" as="geometry">
            <mxRectangle width="158" height="46" as="alternateBounds" />
          </mxGeometry>
        </mxCell>
        <mxCell id="yz5L-PIxiEWywcTvDbyE-6" value="Next State" style="shape=partialRectangle;html=1;whiteSpace=wrap;connectable=0;strokeColor=inherit;overflow=hidden;fillColor=none;top=0;left=0;bottom=0;right=0;pointerEvents=1;fontSize=16;rowspan=2;colspan=1;" vertex="1" parent="yz5L-PIxiEWywcTvDbyE-2">
          <mxGeometry x="474" width="158" height="92" as="geometry">
            <mxRectangle width="158" height="46" as="alternateBounds" />
          </mxGeometry>
        </mxCell>
        <mxCell id="yz5L-PIxiEWywcTvDbyE-7" style="shape=tableRow;horizontal=0;startSize=0;swimlaneHead=0;swimlaneBody=0;strokeColor=inherit;top=0;left=0;bottom=0;right=0;collapsible=0;dropTarget=0;fillColor=none;points=[[0,0.5],[1,0.5]];portConstraint=eastwest;fontSize=16;" vertex="1" parent="yz5L-PIxiEWywcTvDbyE-1">
          <mxGeometry y="76" width="632" height="46" as="geometry" />
        </mxCell>
        <mxCell id="yz5L-PIxiEWywcTvDbyE-8" style="shape=partialRectangle;html=1;whiteSpace=wrap;connectable=0;strokeColor=inherit;overflow=hidden;fillColor=none;top=0;left=0;bottom=0;right=0;pointerEvents=1;fontSize=16;" vertex="1" visible="0" parent="yz5L-PIxiEWywcTvDbyE-7">
          <mxGeometry width="158" height="46" as="geometry">
            <mxRectangle width="158" height="46" as="alternateBounds" />
          </mxGeometry>
        </mxCell>
        <mxCell id="yz5L-PIxiEWywcTvDbyE-9" value="Input_Bit" style="shape=partialRectangle;html=1;whiteSpace=wrap;connectable=0;strokeColor=inherit;overflow=hidden;fillColor=none;top=0;left=0;bottom=0;right=0;pointerEvents=1;fontSize=16;" vertex="1" parent="yz5L-PIxiEWywcTvDbyE-7">
          <mxGeometry x="158" width="158" height="46" as="geometry">
            <mxRectangle width="158" height="46" as="alternateBounds" />
          </mxGeometry>
        </mxCell>
        <mxCell id="yz5L-PIxiEWywcTvDbyE-10" value="Output" style="shape=partialRectangle;html=1;whiteSpace=wrap;connectable=0;strokeColor=inherit;overflow=hidden;fillColor=none;top=0;left=0;bottom=0;right=0;pointerEvents=1;fontSize=16;" vertex="1" parent="yz5L-PIxiEWywcTvDbyE-7">
          <mxGeometry x="316" width="158" height="46" as="geometry">
            <mxRectangle width="158" height="46" as="alternateBounds" />
          </mxGeometry>
        </mxCell>
        <mxCell id="yz5L-PIxiEWywcTvDbyE-11" style="shape=partialRectangle;html=1;whiteSpace=wrap;connectable=0;strokeColor=inherit;overflow=hidden;fillColor=none;top=0;left=0;bottom=0;right=0;pointerEvents=1;fontSize=16;" vertex="1" visible="0" parent="yz5L-PIxiEWywcTvDbyE-7">
          <mxGeometry x="474" width="158" height="46" as="geometry">
            <mxRectangle width="158" height="46" as="alternateBounds" />
          </mxGeometry>
        </mxCell>
        <mxCell id="yz5L-PIxiEWywcTvDbyE-12" value="" style="shape=tableRow;horizontal=0;startSize=0;swimlaneHead=0;swimlaneBody=0;strokeColor=inherit;top=0;left=0;bottom=0;right=0;collapsible=0;dropTarget=0;fillColor=none;points=[[0,0.5],[1,0.5]];portConstraint=eastwest;fontSize=16;" vertex="1" parent="yz5L-PIxiEWywcTvDbyE-1">
          <mxGeometry y="122" width="632" height="45" as="geometry" />
        </mxCell>
        <mxCell id="yz5L-PIxiEWywcTvDbyE-13" value="S0" style="shape=partialRectangle;html=1;whiteSpace=wrap;connectable=0;strokeColor=inherit;overflow=hidden;fillColor=none;top=0;left=0;bottom=0;right=0;pointerEvents=1;fontSize=16;rowspan=2;colspan=1;" vertex="1" parent="yz5L-PIxiEWywcTvDbyE-12">
          <mxGeometry width="158" height="91" as="geometry">
            <mxRectangle width="158" height="45" as="alternateBounds" />
          </mxGeometry>
        </mxCell>
        <mxCell id="yz5L-PIxiEWywcTvDbyE-14" value="1" style="shape=partialRectangle;html=1;whiteSpace=wrap;connectable=0;strokeColor=inherit;overflow=hidden;fillColor=none;top=0;left=0;bottom=0;right=0;pointerEvents=1;fontSize=16;" vertex="1" parent="yz5L-PIxiEWywcTvDbyE-12">
          <mxGeometry x="158" width="158" height="45" as="geometry">
            <mxRectangle width="158" height="45" as="alternateBounds" />
          </mxGeometry>
        </mxCell>
        <mxCell id="yz5L-PIxiEWywcTvDbyE-15" value="0" style="shape=partialRectangle;html=1;whiteSpace=wrap;connectable=0;strokeColor=inherit;overflow=hidden;fillColor=none;top=0;left=0;bottom=0;right=0;pointerEvents=1;fontSize=16;" vertex="1" parent="yz5L-PIxiEWywcTvDbyE-12">
          <mxGeometry x="316" width="158" height="45" as="geometry">
            <mxRectangle width="158" height="45" as="alternateBounds" />
          </mxGeometry>
        </mxCell>
        <mxCell id="yz5L-PIxiEWywcTvDbyE-16" value="S3" style="shape=partialRectangle;html=1;whiteSpace=wrap;connectable=0;strokeColor=inherit;overflow=hidden;fillColor=none;top=0;left=0;bottom=0;right=0;pointerEvents=1;fontSize=16;" vertex="1" parent="yz5L-PIxiEWywcTvDbyE-12">
          <mxGeometry x="474" width="158" height="45" as="geometry">
            <mxRectangle width="158" height="45" as="alternateBounds" />
          </mxGeometry>
        </mxCell>
        <mxCell id="yz5L-PIxiEWywcTvDbyE-17" style="shape=tableRow;horizontal=0;startSize=0;swimlaneHead=0;swimlaneBody=0;strokeColor=inherit;top=0;left=0;bottom=0;right=0;collapsible=0;dropTarget=0;fillColor=none;points=[[0,0.5],[1,0.5]];portConstraint=eastwest;fontSize=16;" vertex="1" parent="yz5L-PIxiEWywcTvDbyE-1">
          <mxGeometry y="167" width="632" height="46" as="geometry" />
        </mxCell>
        <mxCell id="yz5L-PIxiEWywcTvDbyE-18" style="shape=partialRectangle;html=1;whiteSpace=wrap;connectable=0;strokeColor=inherit;overflow=hidden;fillColor=none;top=0;left=0;bottom=0;right=0;pointerEvents=1;fontSize=16;" vertex="1" visible="0" parent="yz5L-PIxiEWywcTvDbyE-17">
          <mxGeometry width="158" height="46" as="geometry">
            <mxRectangle width="158" height="46" as="alternateBounds" />
          </mxGeometry>
        </mxCell>
        <mxCell id="yz5L-PIxiEWywcTvDbyE-19" value="0" style="shape=partialRectangle;html=1;whiteSpace=wrap;connectable=0;strokeColor=inherit;overflow=hidden;fillColor=none;top=0;left=0;bottom=0;right=0;pointerEvents=1;fontSize=16;" vertex="1" parent="yz5L-PIxiEWywcTvDbyE-17">
          <mxGeometry x="158" width="158" height="46" as="geometry">
            <mxRectangle width="158" height="46" as="alternateBounds" />
          </mxGeometry>
        </mxCell>
        <mxCell id="yz5L-PIxiEWywcTvDbyE-20" value="1" style="shape=partialRectangle;html=1;whiteSpace=wrap;connectable=0;strokeColor=inherit;overflow=hidden;fillColor=none;top=0;left=0;bottom=0;right=0;pointerEvents=1;fontSize=16;" vertex="1" parent="yz5L-PIxiEWywcTvDbyE-17">
          <mxGeometry x="316" width="158" height="46" as="geometry">
            <mxRectangle width="158" height="46" as="alternateBounds" />
          </mxGeometry>
        </mxCell>
        <mxCell id="yz5L-PIxiEWywcTvDbyE-21" value="S2" style="shape=partialRectangle;html=1;whiteSpace=wrap;connectable=0;strokeColor=inherit;overflow=hidden;fillColor=none;top=0;left=0;bottom=0;right=0;pointerEvents=1;fontSize=16;" vertex="1" parent="yz5L-PIxiEWywcTvDbyE-17">
          <mxGeometry x="474" width="158" height="46" as="geometry">
            <mxRectangle width="158" height="46" as="alternateBounds" />
          </mxGeometry>
        </mxCell>
        <mxCell id="yz5L-PIxiEWywcTvDbyE-22" value="" style="shape=tableRow;horizontal=0;startSize=0;swimlaneHead=0;swimlaneBody=0;strokeColor=inherit;top=0;left=0;bottom=0;right=0;collapsible=0;dropTarget=0;fillColor=none;points=[[0,0.5],[1,0.5]];portConstraint=eastwest;fontSize=16;" vertex="1" parent="yz5L-PIxiEWywcTvDbyE-1">
          <mxGeometry y="213" width="632" height="45" as="geometry" />
        </mxCell>
        <mxCell id="yz5L-PIxiEWywcTvDbyE-23" value="S2" style="shape=partialRectangle;html=1;whiteSpace=wrap;connectable=0;strokeColor=inherit;overflow=hidden;fillColor=none;top=0;left=0;bottom=0;right=0;pointerEvents=1;fontSize=16;rowspan=2;colspan=1;" vertex="1" parent="yz5L-PIxiEWywcTvDbyE-22">
          <mxGeometry width="158" height="91" as="geometry">
            <mxRectangle width="158" height="45" as="alternateBounds" />
          </mxGeometry>
        </mxCell>
        <mxCell id="yz5L-PIxiEWywcTvDbyE-24" value="1" style="shape=partialRectangle;html=1;whiteSpace=wrap;connectable=0;strokeColor=inherit;overflow=hidden;fillColor=none;top=0;left=0;bottom=0;right=0;pointerEvents=1;fontSize=16;" vertex="1" parent="yz5L-PIxiEWywcTvDbyE-22">
          <mxGeometry x="158" width="158" height="45" as="geometry">
            <mxRectangle width="158" height="45" as="alternateBounds" />
          </mxGeometry>
        </mxCell>
        <mxCell id="yz5L-PIxiEWywcTvDbyE-25" value="1" style="shape=partialRectangle;html=1;whiteSpace=wrap;connectable=0;strokeColor=inherit;overflow=hidden;fillColor=none;top=0;left=0;bottom=0;right=0;pointerEvents=1;fontSize=16;" vertex="1" parent="yz5L-PIxiEWywcTvDbyE-22">
          <mxGeometry x="316" width="158" height="45" as="geometry">
            <mxRectangle width="158" height="45" as="alternateBounds" />
          </mxGeometry>
        </mxCell>
        <mxCell id="yz5L-PIxiEWywcTvDbyE-26" value="S2" style="shape=partialRectangle;html=1;whiteSpace=wrap;connectable=0;strokeColor=inherit;overflow=hidden;fillColor=none;top=0;left=0;bottom=0;right=0;pointerEvents=1;fontSize=16;" vertex="1" parent="yz5L-PIxiEWywcTvDbyE-22">
          <mxGeometry x="474" width="158" height="45" as="geometry">
            <mxRectangle width="158" height="45" as="alternateBounds" />
          </mxGeometry>
        </mxCell>
        <mxCell id="yz5L-PIxiEWywcTvDbyE-27" style="shape=tableRow;horizontal=0;startSize=0;swimlaneHead=0;swimlaneBody=0;strokeColor=inherit;top=0;left=0;bottom=0;right=0;collapsible=0;dropTarget=0;fillColor=none;points=[[0,0.5],[1,0.5]];portConstraint=eastwest;fontSize=16;" vertex="1" parent="yz5L-PIxiEWywcTvDbyE-1">
          <mxGeometry y="258" width="632" height="46" as="geometry" />
        </mxCell>
        <mxCell id="yz5L-PIxiEWywcTvDbyE-28" style="shape=partialRectangle;html=1;whiteSpace=wrap;connectable=0;strokeColor=inherit;overflow=hidden;fillColor=none;top=0;left=0;bottom=0;right=0;pointerEvents=1;fontSize=16;" vertex="1" visible="0" parent="yz5L-PIxiEWywcTvDbyE-27">
          <mxGeometry width="158" height="46" as="geometry">
            <mxRectangle width="158" height="46" as="alternateBounds" />
          </mxGeometry>
        </mxCell>
        <mxCell id="yz5L-PIxiEWywcTvDbyE-29" value="0" style="shape=partialRectangle;html=1;whiteSpace=wrap;connectable=0;strokeColor=inherit;overflow=hidden;fillColor=none;top=0;left=0;bottom=0;right=0;pointerEvents=1;fontSize=16;" vertex="1" parent="yz5L-PIxiEWywcTvDbyE-27">
          <mxGeometry x="158" width="158" height="46" as="geometry">
            <mxRectangle width="158" height="46" as="alternateBounds" />
          </mxGeometry>
        </mxCell>
        <mxCell id="yz5L-PIxiEWywcTvDbyE-30" value="0" style="shape=partialRectangle;html=1;whiteSpace=wrap;connectable=0;strokeColor=inherit;overflow=hidden;fillColor=none;top=0;left=0;bottom=0;right=0;pointerEvents=1;fontSize=16;" vertex="1" parent="yz5L-PIxiEWywcTvDbyE-27">
          <mxGeometry x="316" width="158" height="46" as="geometry">
            <mxRectangle width="158" height="46" as="alternateBounds" />
          </mxGeometry>
        </mxCell>
        <mxCell id="yz5L-PIxiEWywcTvDbyE-31" value="S2" style="shape=partialRectangle;html=1;whiteSpace=wrap;connectable=0;strokeColor=inherit;overflow=hidden;fillColor=none;top=0;left=0;bottom=0;right=0;pointerEvents=1;fontSize=16;" vertex="1" parent="yz5L-PIxiEWywcTvDbyE-27">
          <mxGeometry x="474" width="158" height="46" as="geometry">
            <mxRectangle width="158" height="46" as="alternateBounds" />
          </mxGeometry>
        </mxCell>
        <mxCell id="yz5L-PIxiEWywcTvDbyE-32" style="shape=tableRow;horizontal=0;startSize=0;swimlaneHead=0;swimlaneBody=0;strokeColor=inherit;top=0;left=0;bottom=0;right=0;collapsible=0;dropTarget=0;fillColor=none;points=[[0,0.5],[1,0.5]];portConstraint=eastwest;fontSize=16;" vertex="1" parent="yz5L-PIxiEWywcTvDbyE-1">
          <mxGeometry y="304" width="632" height="45" as="geometry" />
        </mxCell>
        <mxCell id="yz5L-PIxiEWywcTvDbyE-33" value="S3" style="shape=partialRectangle;html=1;whiteSpace=wrap;connectable=0;strokeColor=inherit;overflow=hidden;fillColor=none;top=0;left=0;bottom=0;right=0;pointerEvents=1;fontSize=16;rowspan=2;colspan=1;" vertex="1" parent="yz5L-PIxiEWywcTvDbyE-32">
          <mxGeometry width="158" height="91" as="geometry">
            <mxRectangle width="158" height="45" as="alternateBounds" />
          </mxGeometry>
        </mxCell>
        <mxCell id="yz5L-PIxiEWywcTvDbyE-34" value="1" style="shape=partialRectangle;html=1;whiteSpace=wrap;connectable=0;strokeColor=inherit;overflow=hidden;fillColor=none;top=0;left=0;bottom=0;right=0;pointerEvents=1;fontSize=16;" vertex="1" parent="yz5L-PIxiEWywcTvDbyE-32">
          <mxGeometry x="158" width="158" height="45" as="geometry">
            <mxRectangle width="158" height="45" as="alternateBounds" />
          </mxGeometry>
        </mxCell>
        <mxCell id="yz5L-PIxiEWywcTvDbyE-35" value="0" style="shape=partialRectangle;html=1;whiteSpace=wrap;connectable=0;strokeColor=inherit;overflow=hidden;fillColor=none;top=0;left=0;bottom=0;right=0;pointerEvents=1;fontSize=16;" vertex="1" parent="yz5L-PIxiEWywcTvDbyE-32">
          <mxGeometry x="316" width="158" height="45" as="geometry">
            <mxRectangle width="158" height="45" as="alternateBounds" />
          </mxGeometry>
        </mxCell>
        <mxCell id="yz5L-PIxiEWywcTvDbyE-36" value="S3" style="shape=partialRectangle;html=1;whiteSpace=wrap;connectable=0;strokeColor=inherit;overflow=hidden;fillColor=none;top=0;left=0;bottom=0;right=0;pointerEvents=1;fontSize=16;" vertex="1" parent="yz5L-PIxiEWywcTvDbyE-32">
          <mxGeometry x="474" width="158" height="45" as="geometry">
            <mxRectangle width="158" height="45" as="alternateBounds" />
          </mxGeometry>
        </mxCell>
        <mxCell id="yz5L-PIxiEWywcTvDbyE-37" style="shape=tableRow;horizontal=0;startSize=0;swimlaneHead=0;swimlaneBody=0;strokeColor=inherit;top=0;left=0;bottom=0;right=0;collapsible=0;dropTarget=0;fillColor=none;points=[[0,0.5],[1,0.5]];portConstraint=eastwest;fontSize=16;" vertex="1" parent="yz5L-PIxiEWywcTvDbyE-1">
          <mxGeometry y="349" width="632" height="46" as="geometry" />
        </mxCell>
        <mxCell id="yz5L-PIxiEWywcTvDbyE-38" style="shape=partialRectangle;html=1;whiteSpace=wrap;connectable=0;strokeColor=inherit;overflow=hidden;fillColor=none;top=0;left=0;bottom=0;right=0;pointerEvents=1;fontSize=16;" vertex="1" visible="0" parent="yz5L-PIxiEWywcTvDbyE-37">
          <mxGeometry width="158" height="46" as="geometry">
            <mxRectangle width="158" height="46" as="alternateBounds" />
          </mxGeometry>
        </mxCell>
        <mxCell id="yz5L-PIxiEWywcTvDbyE-39" value="0" style="shape=partialRectangle;html=1;whiteSpace=wrap;connectable=0;strokeColor=inherit;overflow=hidden;fillColor=none;top=0;left=0;bottom=0;right=0;pointerEvents=1;fontSize=16;" vertex="1" parent="yz5L-PIxiEWywcTvDbyE-37">
          <mxGeometry x="158" width="158" height="46" as="geometry">
            <mxRectangle width="158" height="46" as="alternateBounds" />
          </mxGeometry>
        </mxCell>
        <mxCell id="yz5L-PIxiEWywcTvDbyE-40" value="1" style="shape=partialRectangle;html=1;whiteSpace=wrap;connectable=0;strokeColor=inherit;overflow=hidden;fillColor=none;top=0;left=0;bottom=0;right=0;pointerEvents=1;fontSize=16;" vertex="1" parent="yz5L-PIxiEWywcTvDbyE-37">
          <mxGeometry x="316" width="158" height="46" as="geometry">
            <mxRectangle width="158" height="46" as="alternateBounds" />
          </mxGeometry>
        </mxCell>
        <mxCell id="yz5L-PIxiEWywcTvDbyE-41" value="S2" style="shape=partialRectangle;html=1;whiteSpace=wrap;connectable=0;strokeColor=inherit;overflow=hidden;fillColor=none;top=0;left=0;bottom=0;right=0;pointerEvents=1;fontSize=16;" vertex="1" parent="yz5L-PIxiEWywcTvDbyE-37">
          <mxGeometry x="474" width="158" height="46" as="geometry">
            <mxRectangle width="158" height="46" as="alternateBounds" />
          </mxGeometry>
        </mxCell>
      </root>
    </mxGraphModel>
  </diagram>
  <diagram id="-CWApU-zBNdDamPkDWxW" name="Page-2">
    <mxGraphModel dx="150" dy="530" grid="1" gridSize="10" guides="1" tooltips="1" connect="1" arrows="1" fold="1" page="1" pageScale="1" pageWidth="850" pageHeight="1100" math="0" shadow="0">
      <root>
        <mxCell id="0" />
        <mxCell id="1" parent="0" />
        <mxCell id="68Y2kXRp7g4ddbYrQeqx-1" value="Truth Table for Serial Adder" style="shape=table;startSize=30;container=1;collapsible=0;childLayout=tableLayout;strokeColor=default;fontSize=16;fontStyle=1" vertex="1" parent="1">
          <mxGeometry x="890" y="420" width="632" height="393" as="geometry" />
        </mxCell>
        <mxCell id="68Y2kXRp7g4ddbYrQeqx-2" value="" style="shape=tableRow;horizontal=0;startSize=0;swimlaneHead=0;swimlaneBody=0;strokeColor=inherit;top=0;left=0;bottom=0;right=0;collapsible=0;dropTarget=0;fillColor=none;points=[[0,0.5],[1,0.5]];portConstraint=eastwest;fontSize=16;" vertex="1" parent="68Y2kXRp7g4ddbYrQeqx-1">
          <mxGeometry y="30" width="632" height="46" as="geometry" />
        </mxCell>
        <mxCell id="68Y2kXRp7g4ddbYrQeqx-3" value="Current Input" style="shape=partialRectangle;html=1;whiteSpace=wrap;connectable=0;strokeColor=inherit;overflow=hidden;fillColor=none;top=0;left=0;bottom=0;right=0;pointerEvents=1;fontSize=16;rowspan=2;colspan=1;fontStyle=1" vertex="1" parent="68Y2kXRp7g4ddbYrQeqx-2">
          <mxGeometry width="158" height="90" as="geometry">
            <mxRectangle width="158" height="46" as="alternateBounds" />
          </mxGeometry>
        </mxCell>
        <mxCell id="68Y2kXRp7g4ddbYrQeqx-4" value="Current State" style="shape=partialRectangle;html=1;whiteSpace=wrap;connectable=0;strokeColor=inherit;overflow=hidden;fillColor=none;top=0;left=0;bottom=0;right=0;pointerEvents=1;fontSize=16;rowspan=1;colspan=2;fontStyle=1" vertex="1" parent="68Y2kXRp7g4ddbYrQeqx-2">
          <mxGeometry x="158" width="316" height="46" as="geometry">
            <mxRectangle width="158" height="46" as="alternateBounds" />
          </mxGeometry>
        </mxCell>
        <mxCell id="68Y2kXRp7g4ddbYrQeqx-5" style="shape=partialRectangle;html=1;whiteSpace=wrap;connectable=0;strokeColor=inherit;overflow=hidden;fillColor=none;top=0;left=0;bottom=0;right=0;pointerEvents=1;fontSize=16;fontStyle=1" vertex="1" visible="0" parent="68Y2kXRp7g4ddbYrQeqx-2">
          <mxGeometry x="316" width="158" height="46" as="geometry">
            <mxRectangle width="158" height="46" as="alternateBounds" />
          </mxGeometry>
        </mxCell>
        <mxCell id="68Y2kXRp7g4ddbYrQeqx-6" value="Next State" style="shape=partialRectangle;html=1;whiteSpace=wrap;connectable=0;strokeColor=inherit;overflow=hidden;fillColor=none;top=0;left=0;bottom=0;right=0;pointerEvents=1;fontSize=16;rowspan=2;colspan=1;fontStyle=1" vertex="1" parent="68Y2kXRp7g4ddbYrQeqx-2">
          <mxGeometry x="474" width="158" height="90" as="geometry">
            <mxRectangle width="158" height="46" as="alternateBounds" />
          </mxGeometry>
        </mxCell>
        <mxCell id="68Y2kXRp7g4ddbYrQeqx-7" style="shape=tableRow;horizontal=0;startSize=0;swimlaneHead=0;swimlaneBody=0;strokeColor=inherit;top=0;left=0;bottom=0;right=0;collapsible=0;dropTarget=0;fillColor=none;points=[[0,0.5],[1,0.5]];portConstraint=eastwest;fontSize=16;" vertex="1" parent="68Y2kXRp7g4ddbYrQeqx-1">
          <mxGeometry y="76" width="632" height="44" as="geometry" />
        </mxCell>
        <mxCell id="68Y2kXRp7g4ddbYrQeqx-8" style="shape=partialRectangle;html=1;whiteSpace=wrap;connectable=0;strokeColor=inherit;overflow=hidden;fillColor=none;top=0;left=0;bottom=0;right=0;pointerEvents=1;fontSize=16;" vertex="1" visible="0" parent="68Y2kXRp7g4ddbYrQeqx-7">
          <mxGeometry width="158" height="44" as="geometry">
            <mxRectangle width="158" height="44" as="alternateBounds" />
          </mxGeometry>
        </mxCell>
        <mxCell id="68Y2kXRp7g4ddbYrQeqx-9" value="Input_Bit" style="shape=partialRectangle;html=1;whiteSpace=wrap;connectable=0;strokeColor=inherit;overflow=hidden;fillColor=none;top=0;left=0;bottom=0;right=0;pointerEvents=1;fontSize=16;labelBackgroundColor=default;" vertex="1" parent="68Y2kXRp7g4ddbYrQeqx-7">
          <mxGeometry x="158" width="158" height="44" as="geometry">
            <mxRectangle width="158" height="44" as="alternateBounds" />
          </mxGeometry>
        </mxCell>
        <mxCell id="68Y2kXRp7g4ddbYrQeqx-10" value="Output" style="shape=partialRectangle;html=1;whiteSpace=wrap;connectable=0;strokeColor=inherit;overflow=hidden;fillColor=none;top=0;left=0;bottom=0;right=0;pointerEvents=1;fontSize=16;labelBackgroundColor=default;" vertex="1" parent="68Y2kXRp7g4ddbYrQeqx-7">
          <mxGeometry x="316" width="158" height="44" as="geometry">
            <mxRectangle width="158" height="44" as="alternateBounds" />
          </mxGeometry>
        </mxCell>
        <mxCell id="68Y2kXRp7g4ddbYrQeqx-11" style="shape=partialRectangle;html=1;whiteSpace=wrap;connectable=0;strokeColor=inherit;overflow=hidden;fillColor=none;top=0;left=0;bottom=0;right=0;pointerEvents=1;fontSize=16;" vertex="1" visible="0" parent="68Y2kXRp7g4ddbYrQeqx-7">
          <mxGeometry x="474" width="158" height="44" as="geometry">
            <mxRectangle width="158" height="44" as="alternateBounds" />
          </mxGeometry>
        </mxCell>
        <mxCell id="68Y2kXRp7g4ddbYrQeqx-12" value="" style="shape=tableRow;horizontal=0;startSize=0;swimlaneHead=0;swimlaneBody=0;strokeColor=inherit;top=0;left=0;bottom=0;right=0;collapsible=0;dropTarget=0;fillColor=none;points=[[0,0.5],[1,0.5]];portConstraint=eastwest;fontSize=16;" vertex="1" parent="68Y2kXRp7g4ddbYrQeqx-1">
          <mxGeometry y="120" width="632" height="45" as="geometry" />
        </mxCell>
        <mxCell id="68Y2kXRp7g4ddbYrQeqx-13" value="S0" style="shape=partialRectangle;html=1;whiteSpace=wrap;connectable=0;strokeColor=inherit;overflow=hidden;fillColor=none;top=0;left=0;bottom=0;right=0;pointerEvents=1;fontSize=16;rowspan=2;colspan=1;" vertex="1" parent="68Y2kXRp7g4ddbYrQeqx-12">
          <mxGeometry width="158" height="91" as="geometry">
            <mxRectangle width="158" height="45" as="alternateBounds" />
          </mxGeometry>
        </mxCell>
        <mxCell id="68Y2kXRp7g4ddbYrQeqx-14" value="1" style="shape=partialRectangle;html=1;whiteSpace=wrap;connectable=0;strokeColor=inherit;overflow=hidden;fillColor=none;top=0;left=0;bottom=0;right=0;pointerEvents=1;fontSize=16;" vertex="1" parent="68Y2kXRp7g4ddbYrQeqx-12">
          <mxGeometry x="158" width="158" height="45" as="geometry">
            <mxRectangle width="158" height="45" as="alternateBounds" />
          </mxGeometry>
        </mxCell>
        <mxCell id="68Y2kXRp7g4ddbYrQeqx-15" value="0" style="shape=partialRectangle;html=1;whiteSpace=wrap;connectable=0;strokeColor=inherit;overflow=hidden;fillColor=none;top=0;left=0;bottom=0;right=0;pointerEvents=1;fontSize=16;" vertex="1" parent="68Y2kXRp7g4ddbYrQeqx-12">
          <mxGeometry x="316" width="158" height="45" as="geometry">
            <mxRectangle width="158" height="45" as="alternateBounds" />
          </mxGeometry>
        </mxCell>
        <mxCell id="68Y2kXRp7g4ddbYrQeqx-16" value="S3" style="shape=partialRectangle;html=1;whiteSpace=wrap;connectable=0;strokeColor=inherit;overflow=hidden;fillColor=none;top=0;left=0;bottom=0;right=0;pointerEvents=1;fontSize=16;" vertex="1" parent="68Y2kXRp7g4ddbYrQeqx-12">
          <mxGeometry x="474" width="158" height="45" as="geometry">
            <mxRectangle width="158" height="45" as="alternateBounds" />
          </mxGeometry>
        </mxCell>
        <mxCell id="68Y2kXRp7g4ddbYrQeqx-17" style="shape=tableRow;horizontal=0;startSize=0;swimlaneHead=0;swimlaneBody=0;strokeColor=inherit;top=0;left=0;bottom=0;right=0;collapsible=0;dropTarget=0;fillColor=none;points=[[0,0.5],[1,0.5]];portConstraint=eastwest;fontSize=16;" vertex="1" parent="68Y2kXRp7g4ddbYrQeqx-1">
          <mxGeometry y="165" width="632" height="46" as="geometry" />
        </mxCell>
        <mxCell id="68Y2kXRp7g4ddbYrQeqx-18" style="shape=partialRectangle;html=1;whiteSpace=wrap;connectable=0;strokeColor=inherit;overflow=hidden;fillColor=none;top=0;left=0;bottom=0;right=0;pointerEvents=1;fontSize=16;" vertex="1" visible="0" parent="68Y2kXRp7g4ddbYrQeqx-17">
          <mxGeometry width="158" height="46" as="geometry">
            <mxRectangle width="158" height="46" as="alternateBounds" />
          </mxGeometry>
        </mxCell>
        <mxCell id="68Y2kXRp7g4ddbYrQeqx-19" value="0" style="shape=partialRectangle;html=1;whiteSpace=wrap;connectable=0;strokeColor=inherit;overflow=hidden;fillColor=none;top=0;left=0;bottom=0;right=0;pointerEvents=1;fontSize=16;" vertex="1" parent="68Y2kXRp7g4ddbYrQeqx-17">
          <mxGeometry x="158" width="158" height="46" as="geometry">
            <mxRectangle width="158" height="46" as="alternateBounds" />
          </mxGeometry>
        </mxCell>
        <mxCell id="68Y2kXRp7g4ddbYrQeqx-20" value="1" style="shape=partialRectangle;html=1;whiteSpace=wrap;connectable=0;strokeColor=inherit;overflow=hidden;fillColor=none;top=0;left=0;bottom=0;right=0;pointerEvents=1;fontSize=16;" vertex="1" parent="68Y2kXRp7g4ddbYrQeqx-17">
          <mxGeometry x="316" width="158" height="46" as="geometry">
            <mxRectangle width="158" height="46" as="alternateBounds" />
          </mxGeometry>
        </mxCell>
        <mxCell id="68Y2kXRp7g4ddbYrQeqx-21" value="S2" style="shape=partialRectangle;html=1;whiteSpace=wrap;connectable=0;strokeColor=inherit;overflow=hidden;fillColor=none;top=0;left=0;bottom=0;right=0;pointerEvents=1;fontSize=16;" vertex="1" parent="68Y2kXRp7g4ddbYrQeqx-17">
          <mxGeometry x="474" width="158" height="46" as="geometry">
            <mxRectangle width="158" height="46" as="alternateBounds" />
          </mxGeometry>
        </mxCell>
        <mxCell id="68Y2kXRp7g4ddbYrQeqx-22" value="" style="shape=tableRow;horizontal=0;startSize=0;swimlaneHead=0;swimlaneBody=0;strokeColor=inherit;top=0;left=0;bottom=0;right=0;collapsible=0;dropTarget=0;fillColor=none;points=[[0,0.5],[1,0.5]];portConstraint=eastwest;fontSize=16;" vertex="1" parent="68Y2kXRp7g4ddbYrQeqx-1">
          <mxGeometry y="211" width="632" height="45" as="geometry" />
        </mxCell>
        <mxCell id="68Y2kXRp7g4ddbYrQeqx-23" value="S2" style="shape=partialRectangle;html=1;whiteSpace=wrap;connectable=0;strokeColor=inherit;overflow=hidden;fillColor=none;top=0;left=0;bottom=0;right=0;pointerEvents=1;fontSize=16;rowspan=2;colspan=1;" vertex="1" parent="68Y2kXRp7g4ddbYrQeqx-22">
          <mxGeometry width="158" height="91" as="geometry">
            <mxRectangle width="158" height="45" as="alternateBounds" />
          </mxGeometry>
        </mxCell>
        <mxCell id="68Y2kXRp7g4ddbYrQeqx-24" value="1" style="shape=partialRectangle;html=1;whiteSpace=wrap;connectable=0;strokeColor=inherit;overflow=hidden;fillColor=none;top=0;left=0;bottom=0;right=0;pointerEvents=1;fontSize=16;" vertex="1" parent="68Y2kXRp7g4ddbYrQeqx-22">
          <mxGeometry x="158" width="158" height="45" as="geometry">
            <mxRectangle width="158" height="45" as="alternateBounds" />
          </mxGeometry>
        </mxCell>
        <mxCell id="68Y2kXRp7g4ddbYrQeqx-25" value="1" style="shape=partialRectangle;html=1;whiteSpace=wrap;connectable=0;strokeColor=inherit;overflow=hidden;fillColor=none;top=0;left=0;bottom=0;right=0;pointerEvents=1;fontSize=16;" vertex="1" parent="68Y2kXRp7g4ddbYrQeqx-22">
          <mxGeometry x="316" width="158" height="45" as="geometry">
            <mxRectangle width="158" height="45" as="alternateBounds" />
          </mxGeometry>
        </mxCell>
        <mxCell id="68Y2kXRp7g4ddbYrQeqx-26" value="S2" style="shape=partialRectangle;html=1;whiteSpace=wrap;connectable=0;strokeColor=inherit;overflow=hidden;fillColor=none;top=0;left=0;bottom=0;right=0;pointerEvents=1;fontSize=16;" vertex="1" parent="68Y2kXRp7g4ddbYrQeqx-22">
          <mxGeometry x="474" width="158" height="45" as="geometry">
            <mxRectangle width="158" height="45" as="alternateBounds" />
          </mxGeometry>
        </mxCell>
        <mxCell id="68Y2kXRp7g4ddbYrQeqx-27" style="shape=tableRow;horizontal=0;startSize=0;swimlaneHead=0;swimlaneBody=0;strokeColor=inherit;top=0;left=0;bottom=0;right=0;collapsible=0;dropTarget=0;fillColor=none;points=[[0,0.5],[1,0.5]];portConstraint=eastwest;fontSize=16;" vertex="1" parent="68Y2kXRp7g4ddbYrQeqx-1">
          <mxGeometry y="256" width="632" height="46" as="geometry" />
        </mxCell>
        <mxCell id="68Y2kXRp7g4ddbYrQeqx-28" style="shape=partialRectangle;html=1;whiteSpace=wrap;connectable=0;strokeColor=inherit;overflow=hidden;fillColor=none;top=0;left=0;bottom=0;right=0;pointerEvents=1;fontSize=16;" vertex="1" visible="0" parent="68Y2kXRp7g4ddbYrQeqx-27">
          <mxGeometry width="158" height="46" as="geometry">
            <mxRectangle width="158" height="46" as="alternateBounds" />
          </mxGeometry>
        </mxCell>
        <mxCell id="68Y2kXRp7g4ddbYrQeqx-29" value="0" style="shape=partialRectangle;html=1;whiteSpace=wrap;connectable=0;strokeColor=inherit;overflow=hidden;fillColor=none;top=0;left=0;bottom=0;right=0;pointerEvents=1;fontSize=16;" vertex="1" parent="68Y2kXRp7g4ddbYrQeqx-27">
          <mxGeometry x="158" width="158" height="46" as="geometry">
            <mxRectangle width="158" height="46" as="alternateBounds" />
          </mxGeometry>
        </mxCell>
        <mxCell id="68Y2kXRp7g4ddbYrQeqx-30" value="0" style="shape=partialRectangle;html=1;whiteSpace=wrap;connectable=0;strokeColor=inherit;overflow=hidden;fillColor=none;top=0;left=0;bottom=0;right=0;pointerEvents=1;fontSize=16;" vertex="1" parent="68Y2kXRp7g4ddbYrQeqx-27">
          <mxGeometry x="316" width="158" height="46" as="geometry">
            <mxRectangle width="158" height="46" as="alternateBounds" />
          </mxGeometry>
        </mxCell>
        <mxCell id="68Y2kXRp7g4ddbYrQeqx-31" value="S2" style="shape=partialRectangle;html=1;whiteSpace=wrap;connectable=0;strokeColor=inherit;overflow=hidden;fillColor=none;top=0;left=0;bottom=0;right=0;pointerEvents=1;fontSize=16;" vertex="1" parent="68Y2kXRp7g4ddbYrQeqx-27">
          <mxGeometry x="474" width="158" height="46" as="geometry">
            <mxRectangle width="158" height="46" as="alternateBounds" />
          </mxGeometry>
        </mxCell>
        <mxCell id="68Y2kXRp7g4ddbYrQeqx-32" style="shape=tableRow;horizontal=0;startSize=0;swimlaneHead=0;swimlaneBody=0;strokeColor=inherit;top=0;left=0;bottom=0;right=0;collapsible=0;dropTarget=0;fillColor=none;points=[[0,0.5],[1,0.5]];portConstraint=eastwest;fontSize=16;" vertex="1" parent="68Y2kXRp7g4ddbYrQeqx-1">
          <mxGeometry y="302" width="632" height="45" as="geometry" />
        </mxCell>
        <mxCell id="68Y2kXRp7g4ddbYrQeqx-33" value="S3" style="shape=partialRectangle;html=1;whiteSpace=wrap;connectable=0;strokeColor=inherit;overflow=hidden;fillColor=none;top=0;left=0;bottom=0;right=0;pointerEvents=1;fontSize=16;rowspan=2;colspan=1;" vertex="1" parent="68Y2kXRp7g4ddbYrQeqx-32">
          <mxGeometry width="158" height="91" as="geometry">
            <mxRectangle width="158" height="45" as="alternateBounds" />
          </mxGeometry>
        </mxCell>
        <mxCell id="68Y2kXRp7g4ddbYrQeqx-34" value="1" style="shape=partialRectangle;html=1;whiteSpace=wrap;connectable=0;strokeColor=inherit;overflow=hidden;fillColor=none;top=0;left=0;bottom=0;right=0;pointerEvents=1;fontSize=16;" vertex="1" parent="68Y2kXRp7g4ddbYrQeqx-32">
          <mxGeometry x="158" width="158" height="45" as="geometry">
            <mxRectangle width="158" height="45" as="alternateBounds" />
          </mxGeometry>
        </mxCell>
        <mxCell id="68Y2kXRp7g4ddbYrQeqx-35" value="0" style="shape=partialRectangle;html=1;whiteSpace=wrap;connectable=0;strokeColor=inherit;overflow=hidden;fillColor=none;top=0;left=0;bottom=0;right=0;pointerEvents=1;fontSize=16;" vertex="1" parent="68Y2kXRp7g4ddbYrQeqx-32">
          <mxGeometry x="316" width="158" height="45" as="geometry">
            <mxRectangle width="158" height="45" as="alternateBounds" />
          </mxGeometry>
        </mxCell>
        <mxCell id="68Y2kXRp7g4ddbYrQeqx-36" value="S3" style="shape=partialRectangle;html=1;whiteSpace=wrap;connectable=0;strokeColor=inherit;overflow=hidden;fillColor=none;top=0;left=0;bottom=0;right=0;pointerEvents=1;fontSize=16;" vertex="1" parent="68Y2kXRp7g4ddbYrQeqx-32">
          <mxGeometry x="474" width="158" height="45" as="geometry">
            <mxRectangle width="158" height="45" as="alternateBounds" />
          </mxGeometry>
        </mxCell>
        <mxCell id="68Y2kXRp7g4ddbYrQeqx-37" style="shape=tableRow;horizontal=0;startSize=0;swimlaneHead=0;swimlaneBody=0;strokeColor=inherit;top=0;left=0;bottom=0;right=0;collapsible=0;dropTarget=0;fillColor=none;points=[[0,0.5],[1,0.5]];portConstraint=eastwest;fontSize=16;" vertex="1" parent="68Y2kXRp7g4ddbYrQeqx-1">
          <mxGeometry y="347" width="632" height="46" as="geometry" />
        </mxCell>
        <mxCell id="68Y2kXRp7g4ddbYrQeqx-38" style="shape=partialRectangle;html=1;whiteSpace=wrap;connectable=0;strokeColor=inherit;overflow=hidden;fillColor=none;top=0;left=0;bottom=0;right=0;pointerEvents=1;fontSize=16;" vertex="1" visible="0" parent="68Y2kXRp7g4ddbYrQeqx-37">
          <mxGeometry width="158" height="46" as="geometry">
            <mxRectangle width="158" height="46" as="alternateBounds" />
          </mxGeometry>
        </mxCell>
        <mxCell id="68Y2kXRp7g4ddbYrQeqx-39" value="0" style="shape=partialRectangle;html=1;whiteSpace=wrap;connectable=0;strokeColor=inherit;overflow=hidden;fillColor=none;top=0;left=0;bottom=0;right=0;pointerEvents=1;fontSize=16;" vertex="1" parent="68Y2kXRp7g4ddbYrQeqx-37">
          <mxGeometry x="158" width="158" height="46" as="geometry">
            <mxRectangle width="158" height="46" as="alternateBounds" />
          </mxGeometry>
        </mxCell>
        <mxCell id="68Y2kXRp7g4ddbYrQeqx-40" value="1" style="shape=partialRectangle;html=1;whiteSpace=wrap;connectable=0;strokeColor=inherit;overflow=hidden;fillColor=none;top=0;left=0;bottom=0;right=0;pointerEvents=1;fontSize=16;" vertex="1" parent="68Y2kXRp7g4ddbYrQeqx-37">
          <mxGeometry x="316" width="158" height="46" as="geometry">
            <mxRectangle width="158" height="46" as="alternateBounds" />
          </mxGeometry>
        </mxCell>
        <mxCell id="68Y2kXRp7g4ddbYrQeqx-41" value="S2" style="shape=partialRectangle;html=1;whiteSpace=wrap;connectable=0;strokeColor=inherit;overflow=hidden;fillColor=none;top=0;left=0;bottom=0;right=0;pointerEvents=1;fontSize=16;" vertex="1" parent="68Y2kXRp7g4ddbYrQeqx-37">
          <mxGeometry x="474" width="158" height="46" as="geometry">
            <mxRectangle width="158" height="46" as="alternateBounds" />
          </mxGeometry>
        </mxCell>
      </root>
    </mxGraphModel>
  </diagram>
</mxfile>
